{
	"asset":{
		"generator":"Khronos glTF Blender I/O v4.0.44",
		"version":"2.0"
	},
	"scene":0,
	"scenes":[
		{
			"name":"Scene",
			"nodes":[
				0
			]
		}
	],
	"nodes":[
		{
			"mesh":0,
			"name":"Circle",
			"scale":[
				0.05934426188468933,
				0.05934426188468933,
				0.05934426188468933
			]
		}
	],
	"meshes":[
		{
			"name":"Circle",
			"primitives":[
				{
					"attributes":{
						"POSITION":0,
						"NORMAL":1,
						"TEXCOORD_0":2
					},
					"indices":3
				}
			]
		}
	],
	"accessors":[
		{
			"bufferView":0,
			"componentType":5126,
			"count":2218,
			"max":[
				4.047409534454346,
				0.22102884948253632,
				0.9899348020553589
			],
			"min":[
				-4.123757839202881,
				-0.2392224818468094,
				-3.493063449859619
			],
			"type":"VEC3"
		},
		{
			"bufferView":1,
			"componentType":5126,
			"count":2218,
			"type":"VEC3"
		},
		{
			"bufferView":2,
			"componentType":5126,
			"count":2218,
			"type":"VEC2"
		},
		{
			"bufferView":3,
			"componentType":5123,
			"count":5352,
			"type":"SCALAR"
		}
	],
	"bufferViews":[
		{
			"buffer":0,
			"byteLength":26616,
			"byteOffset":0,
			"target":34962
		},
		{
			"buffer":0,
			"byteLength":26616,
			"byteOffset":26616,
			"target":34962
		},
		{
			"buffer":0,
			"byteLength":17744,
			"byteOffset":53232,
			"target":34962
		},
		{
			"buffer":0,
			"byteLength":10704,
			"byteOffset":70976,
			"target":34963
		}
	],
	"buffers":[
		{
			"byteLength":81680,
			"uri":"alat1.bin"
		}
	]
}
