{
	"asset":{
		"generator":"Khronos glTF Blender I/O v4.0.44",
		"version":"2.0"
	},
	"scene":0,
	"scenes":[
		{
			"name":"Scene",
			"nodes":[
				0,
				1,
				2,
				3
			]
		}
	],
	"nodes":[
		{
			"mesh":0,
			"name":"Retopo_Trace.007",
			"rotation":[
				0.6929457187652588,
				0.7209898233413696,
				0,
				2.5341142517731896e-08
			],
			"scale":[
				0.4987804591655731,
				0.4932788014411926,
				0.4932788610458374
			],
			"translation":[
				-0.054972242563962936,
				0.21789579093456268,
				-0.0003303452394902706
			]
		},
		{
			"mesh":1,
			"name":"\u0426\u0438\u043b\u0438\u043d\u0434\u0440.031",
			"rotation":[
				-0.6949213743209839,
				-0.7190857529640198,
				0,
				3.9108240201812805e-08
			],
			"scale":[
				0.4987804591655731,
				0.4987804591655731,
				0.49878042936325073
			],
			"translation":[
				-0.060036033391952515,
				0.21763212978839874,
				0.0055963159538805485
			]
		},
		{
			"mesh":2,
			"name":"\u0426\u0438\u043b\u0438\u043d\u0434\u0440.033",
			"rotation":[
				-0.6949213743209839,
				-0.7190857529640198,
				0,
				3.9108240201812805e-08
			],
			"scale":[
				0.4987804591655731,
				0.4987804591655731,
				0.49878042936325073
			],
			"translation":[
				-0.061368752270936966,
				0.25661027431488037,
				0.005609278101474047
			]
		},
		{
			"mesh":3,
			"name":"\u0426\u0438\u043b\u0438\u043d\u0434\u0440.003",
			"rotation":[
				-0.6949213743209839,
				-0.7190858125686646,
				0,
				3.9108236649099126e-08
			],
			"scale":[
				0.4987804591655731,
				0.4932788610458374,
				0.4932788610458374
			],
			"translation":[
				-0.0604233480989933,
				0.21559609472751617,
				0.008870737627148628
			]
		}
	],
	"materials":[
		{
			"doubleSided":true,
			"name":"Rubber",
			"pbrMetallicRoughness":{
				"baseColorFactor":[
					0.01156415045261383,
					0.01156415045261383,
					0.01156415045261383,
					1
				],
				"metallicFactor":0.5352697372436523,
				"roughnessFactor":0.5290456414222717
			}
		},
		{
			"doubleSided":true,
			"name":"Grid",
			"pbrMetallicRoughness":{
				"baseColorFactor":[
					0.031639013439416885,
					0.031639013439416885,
					0.031639013439416885,
					1
				],
				"metallicFactor":0.4813278317451477
			}
		},
		{
			"doubleSided":true,
			"name":"Metall",
			"pbrMetallicRoughness":{
				"baseColorFactor":[
					0.352913498878479,
					0.352913498878479,
					0.352913498878479,
					1
				],
				"roughnessFactor":0.4854772090911865
			}
		}
	],
	"meshes":[
		{
			"name":"mesh.019",
			"primitives":[
				{
					"attributes":{
						"POSITION":0,
						"NORMAL":1
					},
					"indices":2,
					"material":0
				},
				{
					"attributes":{
						"POSITION":3,
						"NORMAL":4
					},
					"indices":5,
					"material":1
				}
			]
		},
		{
			"name":"\u0426\u0438\u043b\u0438\u043d\u0434\u0440.164",
			"primitives":[
				{
					"attributes":{
						"POSITION":6,
						"NORMAL":7,
						"TEXCOORD_0":8
					},
					"indices":9,
					"material":0
				},
				{
					"attributes":{
						"POSITION":10,
						"NORMAL":11,
						"TEXCOORD_0":12
					},
					"indices":13,
					"material":1
				}
			]
		},
		{
			"name":"\u0426\u0438\u043b\u0438\u043d\u0434\u0440.165",
			"primitives":[
				{
					"attributes":{
						"POSITION":14,
						"NORMAL":15,
						"TEXCOORD_0":16
					},
					"indices":17,
					"material":2
				},
				{
					"attributes":{
						"POSITION":18,
						"NORMAL":19,
						"TEXCOORD_0":20
					},
					"indices":21,
					"material":0
				}
			]
		},
		{
			"name":"\u0426\u0438\u043b\u0438\u043d\u0434\u0440.170",
			"primitives":[
				{
					"attributes":{
						"POSITION":22,
						"NORMAL":23,
						"TEXCOORD_0":24
					},
					"indices":25,
					"material":0
				},
				{
					"attributes":{
						"POSITION":26,
						"NORMAL":27,
						"TEXCOORD_0":28
					},
					"indices":29,
					"material":1
				}
			]
		}
	],
	"accessors":[
		{
			"bufferView":0,
			"componentType":5126,
			"count":41640,
			"max":[
				0.3792985677719116,
				1.0717518329620361,
				1.0725975036621094
			],
			"min":[
				-0.37128832936286926,
				-1.069994330406189,
				-1.0691503286361694
			],
			"type":"VEC3"
		},
		{
			"bufferView":1,
			"componentType":5126,
			"count":41640,
			"type":"VEC3"
		},
		{
			"bufferView":2,
			"componentType":5123,
			"count":147960,
			"type":"SCALAR"
		},
		{
			"bufferView":3,
			"componentType":5126,
			"count":9960,
			"max":[
				0.3624763488769531,
				1.0717518329620361,
				1.0725975036621094
			],
			"min":[
				-0.35482075810432434,
				-1.069994330406189,
				-1.0691503286361694
			],
			"type":"VEC3"
		},
		{
			"bufferView":4,
			"componentType":5126,
			"count":9960,
			"type":"VEC3"
		},
		{
			"bufferView":5,
			"componentType":5123,
			"count":28440,
			"type":"SCALAR"
		},
		{
			"bufferView":6,
			"componentType":5126,
			"count":9436,
			"max":[
				0.4482489228248596,
				1.0316996574401855,
				1.031706690788269
			],
			"min":[
				-0.44824904203414917,
				-1.031681776046753,
				-1.0316747426986694
			],
			"type":"VEC3"
		},
		{
			"bufferView":7,
			"componentType":5126,
			"count":9436,
			"type":"VEC3"
		},
		{
			"bufferView":8,
			"componentType":5126,
			"count":9436,
			"type":"VEC2"
		},
		{
			"bufferView":9,
			"componentType":5123,
			"count":31392,
			"type":"SCALAR"
		},
		{
			"bufferView":10,
			"componentType":5126,
			"count":240,
			"max":[
				0.25494980812072754,
				1.0410975217819214,
				1.0411022901535034
			],
			"min":[
				-0.2996039092540741,
				-1.041084885597229,
				-1.041080117225647
			],
			"type":"VEC3"
		},
		{
			"bufferView":11,
			"componentType":5126,
			"count":240,
			"type":"VEC3"
		},
		{
			"bufferView":12,
			"componentType":5126,
			"count":240,
			"type":"VEC2"
		},
		{
			"bufferView":13,
			"componentType":5123,
			"count":1080,
			"type":"SCALAR"
		},
		{
			"bufferView":14,
			"componentType":5126,
			"count":17517,
			"max":[
				0.28765615820884705,
				0.47380587458610535,
				0.4738317131996155
			],
			"min":[
				-0.4619465470314026,
				-0.47380557656288147,
				-0.47377973794937134
			],
			"type":"VEC3"
		},
		{
			"bufferView":15,
			"componentType":5126,
			"count":17517,
			"type":"VEC3"
		},
		{
			"bufferView":16,
			"componentType":5126,
			"count":17517,
			"type":"VEC2"
		},
		{
			"bufferView":17,
			"componentType":5123,
			"count":47916,
			"type":"SCALAR"
		},
		{
			"bufferView":18,
			"componentType":5126,
			"count":360,
			"max":[
				0.18775340914726257,
				0.05383725091814995,
				0.05386313423514366
			],
			"min":[
				0.17871831357479095,
				-0.05383710190653801,
				-0.0538112111389637
			],
			"type":"VEC3"
		},
		{
			"bufferView":19,
			"componentType":5126,
			"count":360,
			"type":"VEC3"
		},
		{
			"bufferView":20,
			"componentType":5126,
			"count":360,
			"type":"VEC2"
		},
		{
			"bufferView":21,
			"componentType":5123,
			"count":1068,
			"type":"SCALAR"
		},
		{
			"bufferView":22,
			"componentType":5126,
			"count":360,
			"max":[
				0.05663490295410156,
				1.0728458166122437,
				1.0728133916854858
			],
			"min":[
				-0.056479454040527344,
				-1.0729241371154785,
				-1.0729565620422363
			],
			"type":"VEC3"
		},
		{
			"bufferView":23,
			"componentType":5126,
			"count":360,
			"type":"VEC3"
		},
		{
			"bufferView":24,
			"componentType":5126,
			"count":360,
			"type":"VEC2"
		},
		{
			"bufferView":25,
			"componentType":5123,
			"count":1044,
			"type":"SCALAR"
		},
		{
			"bufferView":26,
			"componentType":5126,
			"count":1452,
			"max":[
				0.05663490295410156,
				1.0741162300109863,
				1.0740838050842285
			],
			"min":[
				-0.056479454040527344,
				-1.0741945505142212,
				-1.074226975440979
			],
			"type":"VEC3"
		},
		{
			"bufferView":27,
			"componentType":5126,
			"count":1452,
			"type":"VEC3"
		},
		{
			"bufferView":28,
			"componentType":5126,
			"count":1452,
			"type":"VEC2"
		},
		{
			"bufferView":29,
			"componentType":5123,
			"count":3240,
			"type":"SCALAR"
		}
	],
	"bufferViews":[
		{
			"buffer":0,
			"byteLength":499680,
			"byteOffset":0,
			"target":34962
		},
		{
			"buffer":0,
			"byteLength":499680,
			"byteOffset":499680,
			"target":34962
		},
		{
			"buffer":0,
			"byteLength":295920,
			"byteOffset":999360,
			"target":34963
		},
		{
			"buffer":0,
			"byteLength":119520,
			"byteOffset":1295280,
			"target":34962
		},
		{
			"buffer":0,
			"byteLength":119520,
			"byteOffset":1414800,
			"target":34962
		},
		{
			"buffer":0,
			"byteLength":56880,
			"byteOffset":1534320,
			"target":34963
		},
		{
			"buffer":0,
			"byteLength":113232,
			"byteOffset":1591200,
			"target":34962
		},
		{
			"buffer":0,
			"byteLength":113232,
			"byteOffset":1704432,
			"target":34962
		},
		{
			"buffer":0,
			"byteLength":75488,
			"byteOffset":1817664,
			"target":34962
		},
		{
			"buffer":0,
			"byteLength":62784,
			"byteOffset":1893152,
			"target":34963
		},
		{
			"buffer":0,
			"byteLength":2880,
			"byteOffset":1955936,
			"target":34962
		},
		{
			"buffer":0,
			"byteLength":2880,
			"byteOffset":1958816,
			"target":34962
		},
		{
			"buffer":0,
			"byteLength":1920,
			"byteOffset":1961696,
			"target":34962
		},
		{
			"buffer":0,
			"byteLength":2160,
			"byteOffset":1963616,
			"target":34963
		},
		{
			"buffer":0,
			"byteLength":210204,
			"byteOffset":1965776,
			"target":34962
		},
		{
			"buffer":0,
			"byteLength":210204,
			"byteOffset":2175980,
			"target":34962
		},
		{
			"buffer":0,
			"byteLength":140136,
			"byteOffset":2386184,
			"target":34962
		},
		{
			"buffer":0,
			"byteLength":95832,
			"byteOffset":2526320,
			"target":34963
		},
		{
			"buffer":0,
			"byteLength":4320,
			"byteOffset":2622152,
			"target":34962
		},
		{
			"buffer":0,
			"byteLength":4320,
			"byteOffset":2626472,
			"target":34962
		},
		{
			"buffer":0,
			"byteLength":2880,
			"byteOffset":2630792,
			"target":34962
		},
		{
			"buffer":0,
			"byteLength":2136,
			"byteOffset":2633672,
			"target":34963
		},
		{
			"buffer":0,
			"byteLength":4320,
			"byteOffset":2635808,
			"target":34962
		},
		{
			"buffer":0,
			"byteLength":4320,
			"byteOffset":2640128,
			"target":34962
		},
		{
			"buffer":0,
			"byteLength":2880,
			"byteOffset":2644448,
			"target":34962
		},
		{
			"buffer":0,
			"byteLength":2088,
			"byteOffset":2647328,
			"target":34963
		},
		{
			"buffer":0,
			"byteLength":17424,
			"byteOffset":2649416,
			"target":34962
		},
		{
			"buffer":0,
			"byteLength":17424,
			"byteOffset":2666840,
			"target":34962
		},
		{
			"buffer":0,
			"byteLength":11616,
			"byteOffset":2684264,
			"target":34962
		},
		{
			"buffer":0,
			"byteLength":6480,
			"byteOffset":2695880,
			"target":34963
		}
	],
	"buffers":[
		{
			"byteLength":2702360,
			"uri":"ban.bin"
		}
	]
}
