{
	"asset":{
		"generator":"Khronos glTF Blender I/O v4.0.44",
		"version":"2.0"
	},
	"scene":0,
	"scenes":[
		{
			"name":"Scene",
			"nodes":[
				0,
				1,
				2,
				3,
				4,
				5,
				6,
				7,
				8,
				9,
				10,
				11,
				12,
				13
			]
		}
	],
	"nodes":[
		{
			"mesh":0,
			"name":"Circle",
			"scale":[
				0.09470167011022568,
				0.09470167011022568,
				0.09470167011022568
			],
			"translation":[
				-0.10752220451831818,
				0.2576525807380676,
				-0.11950959265232086
			]
		},
		{
			"mesh":1,
			"name":"Cube",
			"rotation":[
				0.01554984413087368,
				-0.003170895855873823,
				0.0001357810979243368,
				0.9998740553855896
			],
			"scale":[
				0.04601498320698738,
				0.04601498320698738,
				0.04601498320698738
			],
			"translation":[
				-0.22226327657699585,
				0.3066879212856293,
				-0.12755484879016876
			]
		},
		{
			"mesh":2,
			"name":"Cube.001",
			"rotation":[
				0.017484083771705627,
				-0.7119672298431396,
				0.015402735210955143,
				0.7018260359764099
			],
			"scale":[
				0.04601498693227768,
				0.04601498320698738,
				0.04601498320698738
			],
			"translation":[
				-0.10426792502403259,
				0.3186110854148865,
				-0.23033170402050018
			]
		},
		{
			"mesh":3,
			"name":"Cube.002",
			"rotation":[
				-0.06972909718751907,
				0.9965963363647461,
				0.025897491723299026,
				0.03553856536746025
			],
			"scale":[
				0.04601498320698738,
				0.04601497948169708,
				0.04601498320698738
			],
			"translation":[
				0.00816074013710022,
				0.3183801770210266,
				-0.11525627225637436
			]
		},
		{
			"mesh":4,
			"name":"Cube.003",
			"rotation":[
				-0.03088000789284706,
				0.7007638812065125,
				-0.05617707967758179,
				0.7105072140693665
			],
			"scale":[
				0.04601498320698738,
				0.04601498320698738,
				0.04601498320698738
			],
			"translation":[
				-0.10563914477825165,
				0.31427645683288574,
				-0.010302245616912842
			]
		},
		{
			"mesh":5,
			"name":"Circle.001",
			"scale":[
				0.06027177348732948,
				0.06027177348732948,
				0.06027177348732948
			],
			"translation":[
				-0.10770371556282043,
				0.15053898096084595,
				-0.10529189556837082
			]
		},
		{
			"mesh":6,
			"name":"Cylinder",
			"scale":[
				-0.02203589677810669,
				-0.032071325927972794,
				-0.024362634867429733
			],
			"translation":[
				-0.10820379108190536,
				0.18140316009521484,
				0.28865593671798706
			]
		},
		{
			"mesh":7,
			"name":"Circle.002",
			"rotation":[
				0.0013512525474652648,
				0.6860549449920654,
				-0.004375836346298456,
				0.7275353074073792
			],
			"scale":[
				0.06027177348732948,
				0.06027177348732948,
				0.06027177348732948
			],
			"translation":[
				-0.08378861099481583,
				0.1640542894601822,
				-0.12987101078033447
			]
		},
		{
			"mesh":8,
			"name":"Cylinder.001",
			"rotation":[
				0.0013512525474652648,
				0.6860549449920654,
				-0.004375835414975882,
				0.7275353074073792
			],
			"scale":[
				-0.02203589305281639,
				-0.032071325927972794,
				-0.024362634867429733
			],
			"translation":[
				0.309692919254303,
				0.19177938997745514,
				-0.10638996958732605
			]
		},
		{
			"mesh":9,
			"name":"Circle.003",
			"scale":[
				0.06027177348732948,
				0.06027177348732948,
				0.06027177348732948
			],
			"translation":[
				-0.09708012640476227,
				0.1212003231048584,
				-0.9033427238464355
			]
		},
		{
			"mesh":10,
			"name":"Cylinder.002",
			"scale":[
				-0.02203589677810669,
				-0.032071325927972794,
				-0.024362634867429733
			],
			"translation":[
				-0.0975801944732666,
				0.15206453204154968,
				-0.5093949437141418
			]
		},
		{
			"mesh":11,
			"name":"Circle.004",
			"rotation":[
				0.0013512525474652648,
				0.6860549449920654,
				-0.004375836346298456,
				0.7275353074073792
			],
			"scale":[
				0.06027177348732948,
				0.06027177348732948,
				0.06027177348732948
			],
			"translation":[
				-0.8967269659042358,
				0.11183768510818481,
				-0.15349288284778595
			]
		},
		{
			"mesh":12,
			"name":"Cylinder.003",
			"rotation":[
				0.0013512525474652648,
				0.6860549449920654,
				-0.004375835414975882,
				0.7275353074073792
			],
			"scale":[
				-0.02203589305281639,
				-0.032071325927972794,
				-0.024362634867429733
			],
			"translation":[
				-0.50324547290802,
				0.13956277072429657,
				-0.13001185655593872
			]
		},
		{
			"mesh":13,
			"name":"Cube.004",
			"rotation":[
				0,
				1,
				0,
				0
			],
			"scale":[
				-0.23771771788597107,
				-0.026211677119135857,
				-0.23771771788597107
			],
			"translation":[
				-0.10752220451831818,
				0.7007336616516113,
				-0.11950959265232086
			]
		}
	],
	"materials":[
		{
			"doubleSided":true,
			"name":"Material.001",
			"pbrMetallicRoughness":{
				"baseColorFactor":[
					0,
					0,
					0,
					1
				],
				"metallicFactor":0,
				"roughnessFactor":0.5
			}
		},
		{
			"doubleSided":true,
			"name":"Material.002",
			"pbrMetallicRoughness":{
				"baseColorFactor":[
					0.011433616280555725,
					0.011318126693367958,
					0.012601691298186779,
					1
				],
				"metallicFactor":0,
				"roughnessFactor":0.5
			}
		}
	],
	"meshes":[
		{
			"name":"Circle",
			"primitives":[
				{
					"attributes":{
						"POSITION":0,
						"NORMAL":1,
						"TEXCOORD_0":2
					},
					"indices":3,
					"material":0
				}
			]
		},
		{
			"name":"Cube.001",
			"primitives":[
				{
					"attributes":{
						"POSITION":4,
						"NORMAL":5,
						"TEXCOORD_0":6
					},
					"indices":7,
					"material":0
				}
			]
		},
		{
			"name":"Cube.002",
			"primitives":[
				{
					"attributes":{
						"POSITION":8,
						"NORMAL":9,
						"TEXCOORD_0":10
					},
					"indices":7,
					"material":0
				}
			]
		},
		{
			"name":"Cube.003",
			"primitives":[
				{
					"attributes":{
						"POSITION":11,
						"NORMAL":12,
						"TEXCOORD_0":13
					},
					"indices":7,
					"material":0
				}
			]
		},
		{
			"name":"Cube.004",
			"primitives":[
				{
					"attributes":{
						"POSITION":14,
						"NORMAL":15,
						"TEXCOORD_0":16
					},
					"indices":7,
					"material":0
				}
			]
		},
		{
			"name":"Circle.001",
			"primitives":[
				{
					"attributes":{
						"POSITION":17,
						"NORMAL":18,
						"TEXCOORD_0":19
					},
					"indices":20,
					"material":0
				}
			]
		},
		{
			"name":"Cylinder",
			"primitives":[
				{
					"attributes":{
						"POSITION":21,
						"NORMAL":22,
						"TEXCOORD_0":23
					},
					"indices":24,
					"material":0
				}
			]
		},
		{
			"name":"Circle.002",
			"primitives":[
				{
					"attributes":{
						"POSITION":25,
						"NORMAL":26,
						"TEXCOORD_0":27
					},
					"indices":20,
					"material":0
				}
			]
		},
		{
			"name":"Cylinder.001",
			"primitives":[
				{
					"attributes":{
						"POSITION":28,
						"NORMAL":29,
						"TEXCOORD_0":30
					},
					"indices":24,
					"material":0
				}
			]
		},
		{
			"name":"Circle.003",
			"primitives":[
				{
					"attributes":{
						"POSITION":31,
						"NORMAL":32,
						"TEXCOORD_0":33
					},
					"indices":20,
					"material":0
				}
			]
		},
		{
			"name":"Cylinder.002",
			"primitives":[
				{
					"attributes":{
						"POSITION":34,
						"NORMAL":35,
						"TEXCOORD_0":36
					},
					"indices":24,
					"material":0
				}
			]
		},
		{
			"name":"Circle.004",
			"primitives":[
				{
					"attributes":{
						"POSITION":37,
						"NORMAL":38,
						"TEXCOORD_0":39
					},
					"indices":20,
					"material":0
				}
			]
		},
		{
			"name":"Cylinder.003",
			"primitives":[
				{
					"attributes":{
						"POSITION":40,
						"NORMAL":41,
						"TEXCOORD_0":42
					},
					"indices":24,
					"material":0
				}
			]
		},
		{
			"name":"Cube.005",
			"primitives":[
				{
					"attributes":{
						"POSITION":43,
						"NORMAL":44,
						"TEXCOORD_0":45
					},
					"indices":46,
					"material":1
				}
			]
		}
	],
	"accessors":[
		{
			"bufferView":0,
			"componentType":5126,
			"count":294,
			"max":[
				1,
				4.578857898712158,
				1
			],
			"min":[
				-1,
				-1.1920928955078125e-07,
				-1
			],
			"type":"VEC3"
		},
		{
			"bufferView":1,
			"componentType":5126,
			"count":294,
			"type":"VEC3"
		},
		{
			"bufferView":2,
			"componentType":5126,
			"count":294,
			"type":"VEC2"
		},
		{
			"bufferView":3,
			"componentType":5123,
			"count":486,
			"type":"SCALAR"
		},
		{
			"bufferView":4,
			"componentType":5126,
			"count":47,
			"max":[
				1,
				1,
				1
			],
			"min":[
				-6.79982852935791,
				-3.9199182987213135,
				-1
			],
			"type":"VEC3"
		},
		{
			"bufferView":5,
			"componentType":5126,
			"count":47,
			"type":"VEC3"
		},
		{
			"bufferView":6,
			"componentType":5126,
			"count":47,
			"type":"VEC2"
		},
		{
			"bufferView":7,
			"componentType":5123,
			"count":138,
			"type":"SCALAR"
		},
		{
			"bufferView":8,
			"componentType":5126,
			"count":47,
			"max":[
				1,
				1,
				1
			],
			"min":[
				-6.79982852935791,
				-3.9199182987213135,
				-1
			],
			"type":"VEC3"
		},
		{
			"bufferView":9,
			"componentType":5126,
			"count":47,
			"type":"VEC3"
		},
		{
			"bufferView":10,
			"componentType":5126,
			"count":47,
			"type":"VEC2"
		},
		{
			"bufferView":11,
			"componentType":5126,
			"count":47,
			"max":[
				1,
				1,
				1
			],
			"min":[
				-6.79982852935791,
				-3.9199182987213135,
				-1
			],
			"type":"VEC3"
		},
		{
			"bufferView":12,
			"componentType":5126,
			"count":47,
			"type":"VEC3"
		},
		{
			"bufferView":13,
			"componentType":5126,
			"count":47,
			"type":"VEC2"
		},
		{
			"bufferView":14,
			"componentType":5126,
			"count":47,
			"max":[
				1,
				1,
				1
			],
			"min":[
				-6.79982852935791,
				-3.9199182987213135,
				-1
			],
			"type":"VEC3"
		},
		{
			"bufferView":15,
			"componentType":5126,
			"count":47,
			"type":"VEC3"
		},
		{
			"bufferView":16,
			"componentType":5126,
			"count":47,
			"type":"VEC2"
		},
		{
			"bufferView":17,
			"componentType":5126,
			"count":120,
			"max":[
				0.5708658695220947,
				0.5569756627082825,
				7.02375602722168
			],
			"min":[
				0.20723354816436768,
				-0.5074442028999329,
				5.959312915802002
			],
			"type":"VEC3"
		},
		{
			"bufferView":18,
			"componentType":5126,
			"count":120,
			"type":"VEC3"
		},
		{
			"bufferView":19,
			"componentType":5126,
			"count":120,
			"type":"VEC2"
		},
		{
			"bufferView":20,
			"componentType":5123,
			"count":210,
			"type":"SCALAR"
		},
		{
			"bufferView":21,
			"componentType":5126,
			"count":130,
			"max":[
				1,
				1,
				1
			],
			"min":[
				-1,
				-1,
				-1
			],
			"type":"VEC3"
		},
		{
			"bufferView":22,
			"componentType":5126,
			"count":130,
			"type":"VEC3"
		},
		{
			"bufferView":23,
			"componentType":5126,
			"count":130,
			"type":"VEC2"
		},
		{
			"bufferView":24,
			"componentType":5123,
			"count":372,
			"type":"SCALAR"
		},
		{
			"bufferView":25,
			"componentType":5126,
			"count":120,
			"max":[
				0.5708658695220947,
				0.5569756627082825,
				7.02375602722168
			],
			"min":[
				0.20723354816436768,
				-0.5074442028999329,
				5.959312915802002
			],
			"type":"VEC3"
		},
		{
			"bufferView":26,
			"componentType":5126,
			"count":120,
			"type":"VEC3"
		},
		{
			"bufferView":27,
			"componentType":5126,
			"count":120,
			"type":"VEC2"
		},
		{
			"bufferView":28,
			"componentType":5126,
			"count":130,
			"max":[
				1,
				1,
				1
			],
			"min":[
				-1,
				-1,
				-1
			],
			"type":"VEC3"
		},
		{
			"bufferView":29,
			"componentType":5126,
			"count":130,
			"type":"VEC3"
		},
		{
			"bufferView":30,
			"componentType":5126,
			"count":130,
			"type":"VEC2"
		},
		{
			"bufferView":31,
			"componentType":5126,
			"count":120,
			"max":[
				0.5708658695220947,
				0.5569756627082825,
				7.02375602722168
			],
			"min":[
				0.20723354816436768,
				-0.5074442028999329,
				5.959312915802002
			],
			"type":"VEC3"
		},
		{
			"bufferView":32,
			"componentType":5126,
			"count":120,
			"type":"VEC3"
		},
		{
			"bufferView":33,
			"componentType":5126,
			"count":120,
			"type":"VEC2"
		},
		{
			"bufferView":34,
			"componentType":5126,
			"count":130,
			"max":[
				1,
				1,
				1
			],
			"min":[
				-1,
				-1,
				-1
			],
			"type":"VEC3"
		},
		{
			"bufferView":35,
			"componentType":5126,
			"count":130,
			"type":"VEC3"
		},
		{
			"bufferView":36,
			"componentType":5126,
			"count":130,
			"type":"VEC2"
		},
		{
			"bufferView":37,
			"componentType":5126,
			"count":120,
			"max":[
				0.5708658695220947,
				0.5569756627082825,
				7.02375602722168
			],
			"min":[
				0.20723354816436768,
				-0.5074442028999329,
				5.959312915802002
			],
			"type":"VEC3"
		},
		{
			"bufferView":38,
			"componentType":5126,
			"count":120,
			"type":"VEC3"
		},
		{
			"bufferView":39,
			"componentType":5126,
			"count":120,
			"type":"VEC2"
		},
		{
			"bufferView":40,
			"componentType":5126,
			"count":130,
			"max":[
				1,
				1,
				1
			],
			"min":[
				-1,
				-1,
				-1
			],
			"type":"VEC3"
		},
		{
			"bufferView":41,
			"componentType":5126,
			"count":130,
			"type":"VEC3"
		},
		{
			"bufferView":42,
			"componentType":5126,
			"count":130,
			"type":"VEC2"
		},
		{
			"bufferView":43,
			"componentType":5126,
			"count":37,
			"max":[
				1.1969413757324219,
				2.1563520431518555,
				1.1969413757324219
			],
			"min":[
				-1.1969413757324219,
				-2.1563563346862793,
				-1.1969413757324219
			],
			"type":"VEC3"
		},
		{
			"bufferView":44,
			"componentType":5126,
			"count":37,
			"type":"VEC3"
		},
		{
			"bufferView":45,
			"componentType":5126,
			"count":37,
			"type":"VEC2"
		},
		{
			"bufferView":46,
			"componentType":5123,
			"count":132,
			"type":"SCALAR"
		}
	],
	"bufferViews":[
		{
			"buffer":0,
			"byteLength":3528,
			"byteOffset":0,
			"target":34962
		},
		{
			"buffer":0,
			"byteLength":3528,
			"byteOffset":3528,
			"target":34962
		},
		{
			"buffer":0,
			"byteLength":2352,
			"byteOffset":7056,
			"target":34962
		},
		{
			"buffer":0,
			"byteLength":972,
			"byteOffset":9408,
			"target":34963
		},
		{
			"buffer":0,
			"byteLength":564,
			"byteOffset":10380,
			"target":34962
		},
		{
			"buffer":0,
			"byteLength":564,
			"byteOffset":10944,
			"target":34962
		},
		{
			"buffer":0,
			"byteLength":376,
			"byteOffset":11508,
			"target":34962
		},
		{
			"buffer":0,
			"byteLength":276,
			"byteOffset":11884,
			"target":34963
		},
		{
			"buffer":0,
			"byteLength":564,
			"byteOffset":12160,
			"target":34962
		},
		{
			"buffer":0,
			"byteLength":564,
			"byteOffset":12724,
			"target":34962
		},
		{
			"buffer":0,
			"byteLength":376,
			"byteOffset":13288,
			"target":34962
		},
		{
			"buffer":0,
			"byteLength":564,
			"byteOffset":13664,
			"target":34962
		},
		{
			"buffer":0,
			"byteLength":564,
			"byteOffset":14228,
			"target":34962
		},
		{
			"buffer":0,
			"byteLength":376,
			"byteOffset":14792,
			"target":34962
		},
		{
			"buffer":0,
			"byteLength":564,
			"byteOffset":15168,
			"target":34962
		},
		{
			"buffer":0,
			"byteLength":564,
			"byteOffset":15732,
			"target":34962
		},
		{
			"buffer":0,
			"byteLength":376,
			"byteOffset":16296,
			"target":34962
		},
		{
			"buffer":0,
			"byteLength":1440,
			"byteOffset":16672,
			"target":34962
		},
		{
			"buffer":0,
			"byteLength":1440,
			"byteOffset":18112,
			"target":34962
		},
		{
			"buffer":0,
			"byteLength":960,
			"byteOffset":19552,
			"target":34962
		},
		{
			"buffer":0,
			"byteLength":420,
			"byteOffset":20512,
			"target":34963
		},
		{
			"buffer":0,
			"byteLength":1560,
			"byteOffset":20932,
			"target":34962
		},
		{
			"buffer":0,
			"byteLength":1560,
			"byteOffset":22492,
			"target":34962
		},
		{
			"buffer":0,
			"byteLength":1040,
			"byteOffset":24052,
			"target":34962
		},
		{
			"buffer":0,
			"byteLength":744,
			"byteOffset":25092,
			"target":34963
		},
		{
			"buffer":0,
			"byteLength":1440,
			"byteOffset":25836,
			"target":34962
		},
		{
			"buffer":0,
			"byteLength":1440,
			"byteOffset":27276,
			"target":34962
		},
		{
			"buffer":0,
			"byteLength":960,
			"byteOffset":28716,
			"target":34962
		},
		{
			"buffer":0,
			"byteLength":1560,
			"byteOffset":29676,
			"target":34962
		},
		{
			"buffer":0,
			"byteLength":1560,
			"byteOffset":31236,
			"target":34962
		},
		{
			"buffer":0,
			"byteLength":1040,
			"byteOffset":32796,
			"target":34962
		},
		{
			"buffer":0,
			"byteLength":1440,
			"byteOffset":33836,
			"target":34962
		},
		{
			"buffer":0,
			"byteLength":1440,
			"byteOffset":35276,
			"target":34962
		},
		{
			"buffer":0,
			"byteLength":960,
			"byteOffset":36716,
			"target":34962
		},
		{
			"buffer":0,
			"byteLength":1560,
			"byteOffset":37676,
			"target":34962
		},
		{
			"buffer":0,
			"byteLength":1560,
			"byteOffset":39236,
			"target":34962
		},
		{
			"buffer":0,
			"byteLength":1040,
			"byteOffset":40796,
			"target":34962
		},
		{
			"buffer":0,
			"byteLength":1440,
			"byteOffset":41836,
			"target":34962
		},
		{
			"buffer":0,
			"byteLength":1440,
			"byteOffset":43276,
			"target":34962
		},
		{
			"buffer":0,
			"byteLength":960,
			"byteOffset":44716,
			"target":34962
		},
		{
			"buffer":0,
			"byteLength":1560,
			"byteOffset":45676,
			"target":34962
		},
		{
			"buffer":0,
			"byteLength":1560,
			"byteOffset":47236,
			"target":34962
		},
		{
			"buffer":0,
			"byteLength":1040,
			"byteOffset":48796,
			"target":34962
		},
		{
			"buffer":0,
			"byteLength":444,
			"byteOffset":49836,
			"target":34962
		},
		{
			"buffer":0,
			"byteLength":444,
			"byteOffset":50280,
			"target":34962
		},
		{
			"buffer":0,
			"byteLength":296,
			"byteOffset":50724,
			"target":34962
		},
		{
			"buffer":0,
			"byteLength":264,
			"byteOffset":51020,
			"target":34963
		}
	],
	"buffers":[
		{
			"byteLength":51284,
			"uri":"kursi.bin"
		}
	]
}
