{
	"asset":{
		"generator":"Khronos glTF Blender I/O v4.0.44",
		"version":"2.0"
	},
	"scene":0,
	"scenes":[
		{
			"name":"Scene",
			"nodes":[
				0,
				1,
				2,
				3,
				4
			]
		}
	],
	"nodes":[
		{
			"mesh":0,
			"name":"Cube",
			"scale":[
				1.2027698755264282,
				0.045052602887153625,
				0.7409254312515259
			],
			"translation":[
				0.04425084590911865,
				1.0465283393859863,
				0.2816058397293091
			]
		},
		{
			"mesh":1,
			"name":"Cube.002",
			"scale":[
				0.04911130294203758,
				0.5162051916122437,
				0.0576254203915596
			],
			"translation":[
				-1.059853196144104,
				0.49726602435112,
				0.9127222299575806
			]
		},
		{
			"mesh":2,
			"name":"Cube.003",
			"scale":[
				1.0667599439620972,
				0.21519559621810913,
				0.6571409702301025
			],
			"translation":[
				0.04962751269340515,
				0.7850158214569092,
				0.27705028653144836
			]
		},
		{
			"mesh":3,
			"name":"Cube.004",
			"scale":[
				0.18737903237342834,
				0.06242228299379349,
				0.1655835658311844
			],
			"translation":[
				0.9107113480567932,
				0.9234431982040405,
				0.8041580319404602
			]
		},
		{
			"mesh":4,
			"name":"Cube.005",
			"scale":[
				0.18737903237342834,
				0.12484456598758698,
				0.1655835658311844
			],
			"translation":[
				0.9111565351486206,
				0.7255316972732544,
				0.8041579723358154
			]
		}
	],
	"materials":[
		{
			"doubleSided":true,
			"name":"Material",
			"pbrMetallicRoughness":{
				"baseColorFactor":[
					0.28888699412345886,
					0.060427226126194,
					0,
					1
				],
				"metallicFactor":0,
				"roughnessFactor":0.5
			}
		},
		{
			"doubleSided":true,
			"name":"Material.001",
			"pbrMetallicRoughness":{
				"baseColorFactor":[
					0.800000011920929,
					0.800000011920929,
					0.800000011920929,
					1
				],
				"roughnessFactor":0.5
			}
		},
		{
			"doubleSided":true,
			"name":"Material.002",
			"pbrMetallicRoughness":{
				"baseColorFactor":[
					0,
					0,
					0,
					1
				],
				"metallicFactor":0,
				"roughnessFactor":0.5
			}
		}
	],
	"meshes":[
		{
			"name":"Cube",
			"primitives":[
				{
					"attributes":{
						"POSITION":0,
						"NORMAL":1,
						"TEXCOORD_0":2
					},
					"indices":3,
					"material":0
				}
			]
		},
		{
			"name":"Cube.003",
			"primitives":[
				{
					"attributes":{
						"POSITION":4,
						"NORMAL":5,
						"TEXCOORD_0":6
					},
					"indices":7,
					"material":1
				}
			]
		},
		{
			"name":"Cube.004",
			"primitives":[
				{
					"attributes":{
						"POSITION":8,
						"NORMAL":9,
						"TEXCOORD_0":10
					},
					"indices":11,
					"material":2
				}
			]
		},
		{
			"name":"Cube.005",
			"primitives":[
				{
					"attributes":{
						"POSITION":12,
						"NORMAL":13,
						"TEXCOORD_0":14
					},
					"indices":15,
					"material":0
				}
			]
		},
		{
			"name":"Cube.006",
			"primitives":[
				{
					"attributes":{
						"POSITION":16,
						"NORMAL":17,
						"TEXCOORD_0":18
					},
					"indices":15,
					"material":0
				}
			]
		}
	],
	"accessors":[
		{
			"bufferView":0,
			"componentType":5126,
			"count":24,
			"max":[
				1,
				1,
				1
			],
			"min":[
				-1,
				-1,
				-1
			],
			"type":"VEC3"
		},
		{
			"bufferView":1,
			"componentType":5126,
			"count":24,
			"type":"VEC3"
		},
		{
			"bufferView":2,
			"componentType":5126,
			"count":24,
			"type":"VEC2"
		},
		{
			"bufferView":3,
			"componentType":5123,
			"count":36,
			"type":"SCALAR"
		},
		{
			"bufferView":4,
			"componentType":5126,
			"count":96,
			"max":[
				46.29381561279297,
				1,
				1.0000009536743164
			],
			"min":[
				-1,
				-1.011925220489502,
				-22.94976043701172
			],
			"type":"VEC3"
		},
		{
			"bufferView":5,
			"componentType":5126,
			"count":96,
			"type":"VEC3"
		},
		{
			"bufferView":6,
			"componentType":5126,
			"count":96,
			"type":"VEC2"
		},
		{
			"bufferView":7,
			"componentType":5123,
			"count":144,
			"type":"SCALAR"
		},
		{
			"bufferView":8,
			"componentType":5126,
			"count":136,
			"max":[
				1,
				1,
				1
			],
			"min":[
				-1,
				-1,
				-1
			],
			"type":"VEC3"
		},
		{
			"bufferView":9,
			"componentType":5126,
			"count":136,
			"type":"VEC3"
		},
		{
			"bufferView":10,
			"componentType":5126,
			"count":136,
			"type":"VEC2"
		},
		{
			"bufferView":11,
			"componentType":5123,
			"count":306,
			"type":"SCALAR"
		},
		{
			"bufferView":12,
			"componentType":5126,
			"count":24,
			"max":[
				1,
				1,
				1
			],
			"min":[
				-1,
				-1,
				-1
			],
			"type":"VEC3"
		},
		{
			"bufferView":13,
			"componentType":5126,
			"count":24,
			"type":"VEC3"
		},
		{
			"bufferView":14,
			"componentType":5126,
			"count":24,
			"type":"VEC2"
		},
		{
			"bufferView":15,
			"componentType":5123,
			"count":36,
			"type":"SCALAR"
		},
		{
			"bufferView":16,
			"componentType":5126,
			"count":24,
			"max":[
				1,
				1,
				1
			],
			"min":[
				-1,
				-1,
				-1
			],
			"type":"VEC3"
		},
		{
			"bufferView":17,
			"componentType":5126,
			"count":24,
			"type":"VEC3"
		},
		{
			"bufferView":18,
			"componentType":5126,
			"count":24,
			"type":"VEC2"
		}
	],
	"bufferViews":[
		{
			"buffer":0,
			"byteLength":288,
			"byteOffset":0,
			"target":34962
		},
		{
			"buffer":0,
			"byteLength":288,
			"byteOffset":288,
			"target":34962
		},
		{
			"buffer":0,
			"byteLength":192,
			"byteOffset":576,
			"target":34962
		},
		{
			"buffer":0,
			"byteLength":72,
			"byteOffset":768,
			"target":34963
		},
		{
			"buffer":0,
			"byteLength":1152,
			"byteOffset":840,
			"target":34962
		},
		{
			"buffer":0,
			"byteLength":1152,
			"byteOffset":1992,
			"target":34962
		},
		{
			"buffer":0,
			"byteLength":768,
			"byteOffset":3144,
			"target":34962
		},
		{
			"buffer":0,
			"byteLength":288,
			"byteOffset":3912,
			"target":34963
		},
		{
			"buffer":0,
			"byteLength":1632,
			"byteOffset":4200,
			"target":34962
		},
		{
			"buffer":0,
			"byteLength":1632,
			"byteOffset":5832,
			"target":34962
		},
		{
			"buffer":0,
			"byteLength":1088,
			"byteOffset":7464,
			"target":34962
		},
		{
			"buffer":0,
			"byteLength":612,
			"byteOffset":8552,
			"target":34963
		},
		{
			"buffer":0,
			"byteLength":288,
			"byteOffset":9164,
			"target":34962
		},
		{
			"buffer":0,
			"byteLength":288,
			"byteOffset":9452,
			"target":34962
		},
		{
			"buffer":0,
			"byteLength":192,
			"byteOffset":9740,
			"target":34962
		},
		{
			"buffer":0,
			"byteLength":72,
			"byteOffset":9932,
			"target":34963
		},
		{
			"buffer":0,
			"byteLength":288,
			"byteOffset":10004,
			"target":34962
		},
		{
			"buffer":0,
			"byteLength":288,
			"byteOffset":10292,
			"target":34962
		},
		{
			"buffer":0,
			"byteLength":192,
			"byteOffset":10580,
			"target":34962
		}
	],
	"buffers":[
		{
			"byteLength":10772,
			"uri":"meja.bin"
		}
	]
}
