{
	"asset":{
		"generator":"Khronos glTF Blender I/O v4.0.44",
		"version":"2.0"
	},
	"scene":0,
	"scenes":[
		{
			"name":"Scene",
			"nodes":[
				0,
				1,
				2,
				3,
				4,
				5,
				6,
				7
			]
		}
	],
	"nodes":[
		{
			"mesh":0,
			"name":"Cube.001",
			"scale":[
				0.041398823261260986,
				1.0814608335494995,
				0.04717165231704712
			],
			"translation":[
				-0.9502599835395813,
				1.0731760263442993,
				0.7942418456077576
			]
		},
		{
			"mesh":1,
			"name":"Cube.004",
			"rotation":[
				0,
				1,
				0,
				0
			],
			"scale":[
				-0.9635101556777954,
				-0.03132209926843643,
				-0.4205375909805298
			],
			"translation":[
				0,
				0.16333991289138794,
				0.4128052592277527
			]
		},
		{
			"mesh":2,
			"name":"Cube.005",
			"rotation":[
				0,
				1,
				0,
				0
			],
			"scale":[
				-0.9635101556777954,
				-0.03132209926843643,
				-0.4205375909805298
			],
			"translation":[
				0,
				0.8371310830116272,
				0.4128052592277527
			]
		},
		{
			"mesh":3,
			"name":"Cube.006",
			"rotation":[
				0,
				1,
				0,
				0
			],
			"scale":[
				-0.9635101556777954,
				-0.03132209926843643,
				-0.4205375909805298
			],
			"translation":[
				0,
				1.4991703033447266,
				0.4128052592277527
			]
		},
		{
			"mesh":4,
			"name":"Cube.007",
			"rotation":[
				0,
				1,
				0,
				0
			],
			"scale":[
				-0.9635101556777954,
				-0.03132209926843643,
				-0.4205375909805298
			],
			"translation":[
				0,
				2.109886884689331,
				0.4128052592277527
			]
		},
		{
			"mesh":5,
			"name":"Cube.002",
			"scale":[
				0.041398823261260986,
				1.0814608335494995,
				0.04717165231704712
			],
			"translation":[
				-0.9502599835395813,
				1.0731760263442993,
				0.026316381990909576
			]
		},
		{
			"mesh":6,
			"name":"Cube.003",
			"scale":[
				0.041398823261260986,
				1.0814608335494995,
				0.04717165231704712
			],
			"translation":[
				0.9487626552581787,
				1.0731760263442993,
				0.026316381990909576
			]
		},
		{
			"mesh":7,
			"name":"Cube.008",
			"scale":[
				0.041398823261260986,
				1.0814608335494995,
				0.04717165231704712
			],
			"translation":[
				0.9487626552581787,
				1.0731760263442993,
				0.7977958917617798
			]
		}
	],
	"materials":[
		{
			"doubleSided":true,
			"name":"Material",
			"pbrMetallicRoughness":{
				"metallicFactor":0,
				"roughnessFactor":0.5
			}
		},
		{
			"doubleSided":true,
			"name":"Material.001",
			"pbrMetallicRoughness":{
				"metallicFactor":0.5,
				"roughnessFactor":0.5
			}
		}
	],
	"meshes":[
		{
			"name":"Cube.001",
			"primitives":[
				{
					"attributes":{
						"POSITION":0,
						"NORMAL":1,
						"TEXCOORD_0":2
					},
					"indices":3,
					"material":0
				}
			]
		},
		{
			"name":"Cube.004",
			"primitives":[
				{
					"attributes":{
						"POSITION":4,
						"NORMAL":5,
						"TEXCOORD_0":6
					},
					"indices":7,
					"material":1
				}
			]
		},
		{
			"name":"Cube.005",
			"primitives":[
				{
					"attributes":{
						"POSITION":8,
						"NORMAL":9,
						"TEXCOORD_0":10
					},
					"indices":7,
					"material":1
				}
			]
		},
		{
			"name":"Cube.006",
			"primitives":[
				{
					"attributes":{
						"POSITION":11,
						"NORMAL":12,
						"TEXCOORD_0":13
					},
					"indices":7,
					"material":1
				}
			]
		},
		{
			"name":"Cube.007",
			"primitives":[
				{
					"attributes":{
						"POSITION":14,
						"NORMAL":15,
						"TEXCOORD_0":16
					},
					"indices":7,
					"material":1
				}
			]
		},
		{
			"name":"Cube.008",
			"primitives":[
				{
					"attributes":{
						"POSITION":17,
						"NORMAL":18,
						"TEXCOORD_0":19
					},
					"indices":3,
					"material":0
				}
			]
		},
		{
			"name":"Cube.009",
			"primitives":[
				{
					"attributes":{
						"POSITION":20,
						"NORMAL":21,
						"TEXCOORD_0":22
					},
					"indices":3,
					"material":0
				}
			]
		},
		{
			"name":"Cube.010",
			"primitives":[
				{
					"attributes":{
						"POSITION":23,
						"NORMAL":24,
						"TEXCOORD_0":25
					},
					"indices":3,
					"material":0
				}
			]
		}
	],
	"accessors":[
		{
			"bufferView":0,
			"componentType":5126,
			"count":45,
			"max":[
				1,
				1,
				1
			],
			"min":[
				-1,
				-1,
				-1
			],
			"type":"VEC3"
		},
		{
			"bufferView":1,
			"componentType":5126,
			"count":45,
			"type":"VEC3"
		},
		{
			"bufferView":2,
			"componentType":5126,
			"count":45,
			"type":"VEC2"
		},
		{
			"bufferView":3,
			"componentType":5123,
			"count":180,
			"type":"SCALAR"
		},
		{
			"bufferView":4,
			"componentType":5126,
			"count":24,
			"max":[
				1,
				1,
				1
			],
			"min":[
				-1,
				-1,
				-1
			],
			"type":"VEC3"
		},
		{
			"bufferView":5,
			"componentType":5126,
			"count":24,
			"type":"VEC3"
		},
		{
			"bufferView":6,
			"componentType":5126,
			"count":24,
			"type":"VEC2"
		},
		{
			"bufferView":7,
			"componentType":5123,
			"count":36,
			"type":"SCALAR"
		},
		{
			"bufferView":8,
			"componentType":5126,
			"count":24,
			"max":[
				1,
				1,
				1
			],
			"min":[
				-1,
				-1,
				-1
			],
			"type":"VEC3"
		},
		{
			"bufferView":9,
			"componentType":5126,
			"count":24,
			"type":"VEC3"
		},
		{
			"bufferView":10,
			"componentType":5126,
			"count":24,
			"type":"VEC2"
		},
		{
			"bufferView":11,
			"componentType":5126,
			"count":24,
			"max":[
				1,
				1,
				1
			],
			"min":[
				-1,
				-1,
				-1
			],
			"type":"VEC3"
		},
		{
			"bufferView":12,
			"componentType":5126,
			"count":24,
			"type":"VEC3"
		},
		{
			"bufferView":13,
			"componentType":5126,
			"count":24,
			"type":"VEC2"
		},
		{
			"bufferView":14,
			"componentType":5126,
			"count":24,
			"max":[
				1,
				1,
				1
			],
			"min":[
				-1,
				-1,
				-1
			],
			"type":"VEC3"
		},
		{
			"bufferView":15,
			"componentType":5126,
			"count":24,
			"type":"VEC3"
		},
		{
			"bufferView":16,
			"componentType":5126,
			"count":24,
			"type":"VEC2"
		},
		{
			"bufferView":17,
			"componentType":5126,
			"count":45,
			"max":[
				1,
				1,
				1
			],
			"min":[
				-1,
				-1,
				-1
			],
			"type":"VEC3"
		},
		{
			"bufferView":18,
			"componentType":5126,
			"count":45,
			"type":"VEC3"
		},
		{
			"bufferView":19,
			"componentType":5126,
			"count":45,
			"type":"VEC2"
		},
		{
			"bufferView":20,
			"componentType":5126,
			"count":45,
			"max":[
				1,
				1,
				1
			],
			"min":[
				-1,
				-1,
				-1
			],
			"type":"VEC3"
		},
		{
			"bufferView":21,
			"componentType":5126,
			"count":45,
			"type":"VEC3"
		},
		{
			"bufferView":22,
			"componentType":5126,
			"count":45,
			"type":"VEC2"
		},
		{
			"bufferView":23,
			"componentType":5126,
			"count":45,
			"max":[
				1,
				1,
				1
			],
			"min":[
				-1,
				-1,
				-1
			],
			"type":"VEC3"
		},
		{
			"bufferView":24,
			"componentType":5126,
			"count":45,
			"type":"VEC3"
		},
		{
			"bufferView":25,
			"componentType":5126,
			"count":45,
			"type":"VEC2"
		}
	],
	"bufferViews":[
		{
			"buffer":0,
			"byteLength":540,
			"byteOffset":0,
			"target":34962
		},
		{
			"buffer":0,
			"byteLength":540,
			"byteOffset":540,
			"target":34962
		},
		{
			"buffer":0,
			"byteLength":360,
			"byteOffset":1080,
			"target":34962
		},
		{
			"buffer":0,
			"byteLength":360,
			"byteOffset":1440,
			"target":34963
		},
		{
			"buffer":0,
			"byteLength":288,
			"byteOffset":1800,
			"target":34962
		},
		{
			"buffer":0,
			"byteLength":288,
			"byteOffset":2088,
			"target":34962
		},
		{
			"buffer":0,
			"byteLength":192,
			"byteOffset":2376,
			"target":34962
		},
		{
			"buffer":0,
			"byteLength":72,
			"byteOffset":2568,
			"target":34963
		},
		{
			"buffer":0,
			"byteLength":288,
			"byteOffset":2640,
			"target":34962
		},
		{
			"buffer":0,
			"byteLength":288,
			"byteOffset":2928,
			"target":34962
		},
		{
			"buffer":0,
			"byteLength":192,
			"byteOffset":3216,
			"target":34962
		},
		{
			"buffer":0,
			"byteLength":288,
			"byteOffset":3408,
			"target":34962
		},
		{
			"buffer":0,
			"byteLength":288,
			"byteOffset":3696,
			"target":34962
		},
		{
			"buffer":0,
			"byteLength":192,
			"byteOffset":3984,
			"target":34962
		},
		{
			"buffer":0,
			"byteLength":288,
			"byteOffset":4176,
			"target":34962
		},
		{
			"buffer":0,
			"byteLength":288,
			"byteOffset":4464,
			"target":34962
		},
		{
			"buffer":0,
			"byteLength":192,
			"byteOffset":4752,
			"target":34962
		},
		{
			"buffer":0,
			"byteLength":540,
			"byteOffset":4944,
			"target":34962
		},
		{
			"buffer":0,
			"byteLength":540,
			"byteOffset":5484,
			"target":34962
		},
		{
			"buffer":0,
			"byteLength":360,
			"byteOffset":6024,
			"target":34962
		},
		{
			"buffer":0,
			"byteLength":540,
			"byteOffset":6384,
			"target":34962
		},
		{
			"buffer":0,
			"byteLength":540,
			"byteOffset":6924,
			"target":34962
		},
		{
			"buffer":0,
			"byteLength":360,
			"byteOffset":7464,
			"target":34962
		},
		{
			"buffer":0,
			"byteLength":540,
			"byteOffset":7824,
			"target":34962
		},
		{
			"buffer":0,
			"byteLength":540,
			"byteOffset":8364,
			"target":34962
		},
		{
			"buffer":0,
			"byteLength":360,
			"byteOffset":8904,
			"target":34962
		}
	],
	"buffers":[
		{
			"byteLength":9264,
			"uri":"rak.bin"
		}
	]
}
